<svg width="161" height="48" viewBox="0 0 161 48" fill="none" xmlns="http://www.w3.org/2000/svg">
    <g clip-path="url(#clip0_1_129)">
        <path d="M148.179 3.39297e-05H12.8283C12.3349 3.39297e-05 11.8475 3.39298e-05 11.3554 0.00243393C10.9435 0.00483393 10.5349 0.0118059 10.119 0.0176739C9.21556 0.0271561 8.31425 0.0980455 7.42289 0.229726C6.53278 0.364273 5.67056 0.617933 4.86538 0.982126C4.06119 1.3494 3.32638 1.82664 2.6876 2.39652C2.04547 2.9648 1.5102 3.62165 1.10238 4.34183C0.693437 5.06057 0.409873 5.83076 0.261485 6.62581C0.111686 7.41986 0.0310773 8.22306 0.0203833 9.02821C0.00789769 9.39613 0.00657917 9.76528 0 10.1332V37.8704C0.00657917 38.243 0.00789769 38.6039 0.0203833 38.9766C0.0310806 39.7817 0.111689 40.5849 0.261485 41.3789C0.409464 42.1744 0.693044 42.9451 1.10238 43.6641C1.51001 44.3819 2.04536 45.0361 2.6876 45.6012C3.32395 46.1737 4.05924 46.6512 4.86538 47.0157C5.67055 47.3808 6.53268 47.636 7.42289 47.7726C8.3144 47.9033 9.21562 47.9742 10.119 47.9848C10.5349 47.993 10.9435 47.9976 11.3554 47.9976C11.8474 48 12.3349 48 12.8283 48H148.179C148.663 48 149.154 48 149.637 47.9976C150.047 47.9976 150.468 47.993 150.878 47.9848C151.779 47.9748 152.679 47.9038 153.569 47.7726C154.462 47.6351 155.327 47.38 156.136 47.0157C156.941 46.651 157.676 46.1735 158.312 45.6012C158.952 45.0339 159.489 44.3802 159.902 43.6641C160.308 42.9445 160.589 42.174 160.735 41.3789C160.885 40.5848 160.968 39.7818 160.984 38.9766C160.99 38.6039 160.99 38.243 160.99 37.8704C161 37.4344 161 37.0008 161 36.5578V11.4434C161 11.0039 161 10.568 160.99 10.1332C160.99 9.76528 160.99 9.39613 160.984 9.02816C160.968 8.22294 160.885 7.41992 160.735 6.62576C160.588 5.83117 160.307 5.06104 159.902 4.34178C159.071 2.89827 157.754 1.72326 156.136 0.982018C155.327 0.618715 154.462 0.365122 153.569 0.229618C152.679 0.0973573 151.78 0.0264433 150.878 0.0175059C150.468 0.0116499 150.047 0.00461793 149.637 0.00227793C149.154 -0.00012207 148.663 -0.00012207 148.179 -0.00012207V3.39297e-05Z" fill="#A6A6A6"/>
        <path d="M11.3621 46.9499C10.9521 46.9499 10.5521 46.9453 10.1454 46.9371C9.30286 46.9273 8.4623 46.8619 7.63059 46.7414C6.85507 46.6222 6.1038 46.4007 5.40156 46.0839C4.70576 45.7698 4.07113 45.3579 3.52199 44.864C2.9649 44.3759 2.5011 43.8098 2.14896 43.1882C1.79295 42.5625 1.54656 41.8918 1.41839 41.1995C1.27998 40.4557 1.2051 39.7035 1.19438 38.9495C1.18585 38.6965 1.17468 37.8538 1.17468 37.8538V10.1331C1.17468 10.1331 1.18658 9.30344 1.19445 9.05969C1.20471 8.30691 1.27916 7.55591 1.41716 6.8132C1.54556 6.11903 1.79214 5.44643 2.14835 4.81868C2.49919 4.19746 2.96041 3.63096 3.51415 3.14114C4.06726 2.64667 4.70392 2.23265 5.4009 1.91418C6.10153 1.59844 6.85138 1.37841 7.62533 1.26145C8.45977 1.13973 9.30325 1.07392 10.1487 1.06458L11.3627 1.04993H149.631L150.859 1.06517C151.697 1.07405 152.533 1.13927 153.36 1.26027C154.142 1.3787 154.899 1.60027 155.608 1.91769C157.004 2.55951 158.14 3.57492 158.857 4.82161C159.208 5.44502 159.45 6.11214 159.577 6.80032C159.717 7.54912 159.795 8.30601 159.811 9.06497C159.815 9.40481 159.815 9.76985 159.815 10.1331C159.826 10.5831 159.826 11.0115 159.826 11.4433V36.5577C159.826 36.9937 159.826 37.4191 159.815 37.8479C159.815 38.2382 159.815 38.5957 159.81 38.9636C159.794 39.709 159.717 40.4524 159.58 41.1878C159.454 41.885 159.209 42.5609 158.853 43.1918C158.499 43.8067 158.037 44.3679 157.487 44.8546C156.937 45.3512 156.301 45.7655 155.604 46.0816C154.897 46.4008 154.141 46.6232 153.36 46.7414C152.528 46.8625 151.688 46.9279 150.845 46.9371C150.451 46.9453 150.038 46.9499 149.638 46.9499L148.179 46.9523L11.3621 46.9499Z" fill="black"/>
        <path d="M33.3248 24.3608C33.3393 23.3592 33.6376 22.3771 34.1919 21.506C34.7463 20.6348 35.5387 19.9029 36.4954 19.3783C35.8876 18.6041 35.0858 17.967 34.1537 17.5175C33.2215 17.0681 32.1847 16.8187 31.1256 16.7891C28.8663 16.5776 26.676 17.9949 25.5247 17.9949C24.3511 17.9949 22.5785 16.8101 20.6697 16.8451C19.435 16.8807 18.2317 17.2009 17.1771 17.7746C16.1224 18.3483 15.2523 19.1558 14.6517 20.1186C12.0496 24.1367 13.9905 30.0419 16.4831 33.2899C17.7301 34.8803 19.1876 36.6568 21.0947 36.5938C22.9609 36.5248 23.6579 35.5324 25.9105 35.5324C28.1423 35.5324 28.7962 36.5938 30.742 36.5538C32.7445 36.5248 34.0062 34.9563 35.2095 33.3508C36.1056 32.2176 36.795 30.9651 37.2525 29.6398C36.0891 29.2009 35.0962 28.4663 34.3978 27.5275C33.6993 26.5888 33.3262 25.4874 33.3248 24.3608Z" fill="white"/>
        <path d="M29.6495 14.6531C30.7414 13.4841 31.2793 11.9814 31.149 10.4644C29.4809 10.6206 27.9401 11.3317 26.8334 12.4559C26.2924 13.0051 25.878 13.644 25.614 14.3361C25.3499 15.0283 25.2414 15.76 25.2947 16.4896C26.129 16.4972 26.9544 16.3359 27.7088 16.0178C28.4631 15.6997 29.1267 15.2331 29.6495 14.6531Z" fill="white"/>
        <path d="M56.8828 32.5676H50.5143L48.9849 36.5953H46.2875L52.3196 21.6937H55.1221L61.1542 36.5953H58.4108L56.8828 32.5676ZM51.1739 30.709H56.2219L53.7334 24.1723H53.6638L51.1739 30.709Z" fill="white"/>
        <path d="M74.1817 31.1637C74.1817 34.5399 72.1557 36.709 69.0982 36.709C68.3237 36.7452 67.5535 36.586 66.8757 36.2499C66.1978 35.9137 65.6399 35.4141 65.2656 34.8082H65.2077V40.1895H62.7074V25.7309H65.1276V27.5379H65.1736C65.5651 26.935 66.1325 26.438 66.8155 26.0997C67.4985 25.7615 68.2715 25.5948 69.0523 25.6172C72.1438 25.6172 74.1817 27.7969 74.1817 31.1637ZM71.6117 31.1637C71.6117 28.9641 70.3372 27.518 68.3927 27.518C66.4823 27.518 65.1973 28.9946 65.1973 31.1637C65.1973 33.3528 66.4823 34.8188 68.3927 34.8188C70.3373 34.8188 71.6117 33.3833 71.6117 31.1637Z" fill="white"/>
        <path d="M87.5887 31.1637C87.5887 34.5399 85.5627 36.709 82.5052 36.709C81.7307 36.7452 80.9605 36.586 80.2826 36.2499C79.6048 35.9137 79.0468 35.4141 78.6726 34.8082H78.6147V40.1895H76.1144V25.7309H78.5346V27.5379H78.5806C78.972 26.935 79.5394 26.4379 80.2224 26.0997C80.9054 25.7615 81.6784 25.5948 82.4592 25.6172C85.5508 25.6172 87.5887 27.7969 87.5887 31.1637ZM85.0187 31.1637C85.0187 28.9641 83.7442 27.518 81.7997 27.518C79.8892 27.518 78.6043 28.9946 78.6043 31.1637C78.6043 33.3528 79.8892 34.8188 81.7997 34.8188C83.7442 34.8188 85.0187 33.3833 85.0187 31.1637H85.0187Z" fill="white"/>
        <path d="M96.4494 32.4434C96.6347 33.9212 98.2442 34.8914 100.444 34.8914C102.551 34.8914 104.067 33.9211 104.067 32.5887C104.067 31.432 103.153 30.7395 100.988 30.2649L98.8223 29.7996C95.7544 29.1387 94.3301 27.859 94.3301 25.7824C94.3301 23.2113 96.8423 21.4453 100.41 21.4453C103.94 21.4453 106.36 23.2113 106.442 25.7824H103.918C103.766 24.2953 102.388 23.3977 100.374 23.3977C98.3598 23.3977 96.9815 24.3059 96.9815 25.6277C96.9815 26.6813 97.8618 27.3012 100.015 27.7757L101.856 28.1789C105.284 28.9019 106.708 30.1301 106.708 32.3097C106.708 35.0976 104.218 36.8437 100.258 36.8437C96.5532 36.8437 94.0515 35.1386 93.8899 32.4433L96.4494 32.4434Z" fill="white"/>
        <path d="M112.105 23.1598V25.7309H114.421V27.4969H112.105V33.4863C112.105 34.4168 112.568 34.8504 113.587 34.8504C113.862 34.8461 114.136 34.8289 114.409 34.7988V36.5543C113.951 36.6306 113.486 36.6651 113.02 36.6574C110.554 36.6574 109.592 35.8312 109.592 33.7242V27.4969H107.821V25.7309H109.592V23.1598H112.105Z" fill="white"/>
        <path d="M115.763 31.1637C115.763 27.7453 118.02 25.5973 121.54 25.5973C125.072 25.5973 127.318 27.7453 127.318 31.1637C127.318 34.5914 125.083 36.7301 121.54 36.7301C117.997 36.7301 115.763 34.5914 115.763 31.1637ZM124.771 31.1637C124.771 28.8188 123.566 27.4348 121.54 27.4348C119.514 27.4348 118.31 28.8293 118.31 31.1637C118.31 33.518 119.514 34.8914 121.54 34.8914C123.566 34.8914 124.771 33.518 124.771 31.1637H124.771Z" fill="white"/>
        <path d="M129.38 25.7309H131.764V27.5801H131.822C131.984 27.0026 132.363 26.4922 132.897 26.1347C133.43 25.7773 134.085 25.5945 134.752 25.6172C135.04 25.6163 135.328 25.6443 135.609 25.7005V27.7864C135.245 27.6872 134.866 27.6417 134.485 27.6516C134.122 27.6385 133.76 27.6956 133.424 27.8191C133.088 27.9425 132.786 28.1294 132.538 28.3669C132.291 28.6044 132.104 28.8868 131.99 29.1948C131.876 29.5028 131.839 29.8291 131.88 30.1512V36.5954H129.38L129.38 25.7309Z" fill="white"/>
        <path d="M147.137 33.4043C146.801 35.3766 144.647 36.7301 141.892 36.7301C138.349 36.7301 136.149 34.6125 136.149 31.2153C136.149 27.8074 138.36 25.5973 141.787 25.5973C145.157 25.5973 147.276 27.6621 147.276 30.9563V31.7203H138.673V31.8551C138.633 32.2549 138.689 32.6577 138.838 33.0367C138.986 33.4158 139.223 33.7623 139.533 34.0534C139.843 34.3444 140.219 34.5733 140.635 34.7249C141.052 34.8765 141.5 34.9472 141.95 34.9324C142.541 34.9818 143.134 34.8598 143.641 34.5844C144.147 34.3091 144.541 33.8952 144.763 33.4043L147.137 33.4043ZM138.685 30.1617H144.775C144.797 29.8022 144.736 29.4425 144.595 29.105C144.454 28.7676 144.237 28.4597 143.956 28.2008C143.676 27.9419 143.338 27.7375 142.965 27.6004C142.592 27.4633 142.191 27.3966 141.787 27.4043C141.38 27.4022 140.976 27.4719 140.599 27.6096C140.223 27.7473 139.88 27.9502 139.592 28.2066C139.303 28.4629 139.075 28.7677 138.919 29.1033C138.763 29.4388 138.684 29.7986 138.685 30.1618V30.1617Z" fill="white"/>
        <path d="M46.2875 18.2867V15.8756H46.4652C46.6956 15.8756 46.88 15.8255 47.0182 15.7254C47.1564 15.6253 47.2717 15.4251 47.3638 15.1248C47.4626 14.8187 47.5383 14.3682 47.5909 13.7735L47.8773 10.488H52.2617V15.8756H53.2787V18.2867H52.2617V16.7146H47.3046V18.2867H46.2875ZM51.2446 15.8756V11.3271H48.8154L48.608 13.8177C48.529 14.8128 48.3249 15.4987 47.9958 15.8756H51.2446Z" fill="white"/>
        <path d="M56.5119 16.8029C55.9919 16.8029 55.5277 16.7028 55.1196 16.5026C54.7114 16.3024 54.3922 16.0228 54.1618 15.6636C53.9313 15.3044 53.8161 14.8952 53.8161 14.4359C53.8161 13.9767 53.9313 13.5675 54.1618 13.2083C54.3922 12.8491 54.7114 12.5694 55.1196 12.3693C55.5277 12.1632 55.9919 12.0601 56.5119 12.0601C57.032 12.0601 57.4961 12.1632 57.9043 12.3693C58.3124 12.5694 58.6317 12.8491 58.8621 13.2083C59.0925 13.5675 59.2077 13.9767 59.2077 14.4359C59.2077 14.8952 59.0925 15.3044 58.8621 15.6636C58.6317 16.0228 58.3124 16.3024 57.9043 16.5026C57.4961 16.7028 57.032 16.8029 56.5119 16.8029ZM56.5119 16.008C57.0122 16.008 57.4171 15.8638 57.7265 15.5753C58.0425 15.2868 58.2005 14.907 58.2005 14.4359C58.2005 13.9649 58.0425 13.5851 57.7265 13.2966C57.4171 13.0022 57.0122 12.855 56.5119 12.855C56.0116 12.855 55.6067 13.0022 55.2973 13.2966C54.9879 13.5851 54.8332 13.9649 54.8332 14.4359C54.8332 14.9011 54.9879 15.2809 55.2973 15.5753C55.6067 15.8638 56.0116 16.008 56.5119 16.008Z" fill="white"/>
        <path d="M62.5956 16.8029C62.0887 16.8029 61.6312 16.7028 61.2231 16.5026C60.8215 16.2965 60.5088 16.0139 60.285 15.6548C60.0611 15.2956 59.9492 14.8893 59.9492 14.4359C59.9492 13.9767 60.0611 13.5675 60.285 13.2083C60.5088 12.8491 60.8215 12.5694 61.2231 12.3693C61.6246 12.1632 62.0822 12.0601 62.5956 12.0601C63.142 12.0601 63.6292 12.1779 64.0571 12.4134C64.4916 12.6489 64.801 12.9875 64.9853 13.4291L64.0768 13.5616C63.9583 13.3496 63.7707 13.1789 63.514 13.0493C63.2638 12.9198 62.9775 12.855 62.6549 12.855C62.1546 12.855 61.7464 13.0022 61.4304 13.2966C61.121 13.591 60.9663 13.9708 60.9663 14.4359C60.9663 14.9011 61.121 15.2809 61.4304 15.5753C61.7464 15.8638 62.1546 16.008 62.6549 16.008C62.9906 16.008 63.2869 15.9403 63.5436 15.8049C63.8069 15.6695 63.9978 15.4899 64.1163 15.2661L65.0248 15.3986C64.8405 15.8461 64.5245 16.1935 64.0768 16.4408C63.6358 16.6822 63.142 16.8029 62.5956 16.8029Z" fill="white"/>
        <path d="M68.0126 16.7146H67.0449V12.9433H65.2773V12.1485H69.7802V12.9433H68.0126V16.7146Z" fill="white"/>
        <path d="M74.3519 12.1485H75.3492L73.2163 17.4035C73.0583 17.798 72.851 18.0836 72.5942 18.2602C72.3375 18.4368 71.9951 18.5252 71.5672 18.5252H70.8069L70.718 17.7303H71.6265C71.8174 17.7303 71.9655 17.692 72.0709 17.6155C72.1762 17.5448 72.2651 17.4182 72.3375 17.2357L72.4461 16.9707L70.1749 12.1485H71.2118L72.8312 15.6724H72.9694L74.3519 12.1485Z" fill="white"/>
        <path d="M77.192 16.7146H76.2243V12.1485H80.5692V16.7146H79.6014V12.9433H77.192V16.7146Z" fill="white"/>
        <path d="M85.3307 14.012V12.1485H86.2984V16.7146H85.3307V14.8069H82.8719V16.7146H81.9042V12.1485H82.8719V14.012H85.3307Z" fill="white"/>
        <path d="M90.0318 16.8029C89.5117 16.8029 89.0476 16.7028 88.6395 16.5026C88.2313 16.3024 87.912 16.0228 87.6816 15.6636C87.4512 15.3044 87.336 14.8952 87.336 14.4359C87.336 13.9767 87.4512 13.5675 87.6816 13.2083C87.912 12.8491 88.2313 12.5694 88.6395 12.3693C89.0476 12.1632 89.5117 12.0601 90.0318 12.0601C90.5519 12.0601 91.016 12.1632 91.4241 12.3693C91.8323 12.5694 92.1516 12.8491 92.382 13.2083C92.6124 13.5675 92.7276 13.9767 92.7276 14.4359C92.7276 14.8952 92.6124 15.3044 92.382 15.6636C92.1516 16.0228 91.8323 16.3024 91.4241 16.5026C91.016 16.7028 90.5519 16.8029 90.0318 16.8029ZM90.0318 16.008C90.5321 16.008 90.937 15.8638 91.2464 15.5753C91.5624 15.2868 91.7204 14.907 91.7204 14.4359C91.7204 13.9649 91.5624 13.5851 91.2464 13.2966C90.937 13.0022 90.5321 12.855 90.0318 12.855C89.5315 12.855 89.1266 13.0022 88.8172 13.2966C88.5078 13.5851 88.3531 13.9649 88.3531 14.4359C88.3531 14.9011 88.5078 15.2809 88.8172 15.5753C89.1266 15.8638 89.5315 16.008 90.0318 16.008Z" fill="white"/>
        <path d="M99.5246 14.3211C99.7879 14.4094 99.9986 14.5537 100.157 14.7539C100.321 14.9482 100.403 15.1778 100.403 15.4428C100.403 15.6842 100.324 15.9021 100.166 16.0964C100.015 16.2907 99.8011 16.4437 99.5246 16.5556C99.2481 16.6616 98.9321 16.7146 98.5766 16.7146H96.1376V12.1485H98.4878C98.8235 12.1485 99.123 12.2014 99.3863 12.3074C99.6497 12.4134 99.8538 12.5577 99.9986 12.7402C100.15 12.9227 100.226 13.1317 100.226 13.3673C100.226 13.591 100.163 13.7853 100.038 13.9502C99.9196 14.1092 99.7484 14.2328 99.5246 14.3211ZM97.1053 12.8815V14.0032H98.4878C98.7116 14.0032 98.8959 13.9531 99.0407 13.853C99.1856 13.747 99.258 13.6116 99.258 13.4468C99.258 13.2819 99.1856 13.1465 99.0407 13.0405C98.8959 12.9345 98.7116 12.8815 98.4878 12.8815H97.1053ZM98.5766 15.9815C98.8334 15.9815 99.0407 15.9227 99.1987 15.8049C99.3567 15.6871 99.4357 15.5341 99.4357 15.3456C99.4357 15.1572 99.3567 15.0041 99.1987 14.8864C99.0407 14.7686 98.8334 14.7097 98.5766 14.7097H97.1053V15.9815H98.5766Z" fill="white"/>
    </g>
    <defs>
        <clipPath id="clip0_1_129">
            <rect width="161" height="48" fill="white"/>
        </clipPath>
    </defs>
</svg>
