<svg width="161" height="48" viewBox="0 0 161 48" fill="none" xmlns="http://www.w3.org/2000/svg">
    <g clip-path="url(#clip0_1_128)">
        <path d="M155.037 0H5.96296C2.66971 0 0 2.68629 0 6V42C0 45.3137 2.66971 48 5.96296 48H155.037C158.33 48 161 45.3137 161 42V6C161 2.68629 158.33 0 155.037 0Z" fill="black"/>
        <path d="M155.037 0.96C156.365 0.96 157.64 1.491 158.579 2.43618C159.518 3.38137 160.046 4.66331 160.046 6V42C160.046 43.3367 159.518 44.6186 158.579 45.5638C157.64 46.509 156.365 47.04 155.037 47.04H5.96296C4.63452 47.04 3.36049 46.509 2.42114 45.5638C1.48179 44.6186 0.954074 43.3367 0.954074 42V6C0.954074 4.66331 1.48179 3.38137 2.42114 2.43618C3.36049 1.491 4.63452 0.96 5.96296 0.96H155.037ZM155.037 0H5.96296C4.38149 0 2.86478 0.632141 1.74651 1.75736C0.628239 2.88258 0 4.4087 0 6V42C0 43.5913 0.628239 45.1174 1.74651 46.2426C2.86478 47.3679 4.38149 48 5.96296 48H155.037C156.619 48 158.135 47.3679 159.253 46.2426C160.372 45.1174 161 43.5913 161 42V6C161 4.4087 160.372 2.88258 159.253 1.75736C158.135 0.632141 156.619 0 155.037 0Z" fill="#A6A6A6"/>
        <path d="M81.2632 26.1C80.2584 26.1024 79.2769 26.4045 78.4427 26.9682C77.6086 27.5319 76.9592 28.3318 76.5769 29.2668C76.1946 30.2018 76.0964 31.2299 76.2947 32.221C76.493 33.2122 76.979 34.1219 77.6912 34.8352C78.4034 35.5484 79.3098 36.0331 80.2957 36.2281C81.2817 36.423 82.303 36.3193 83.2304 35.9302C84.1578 35.5411 84.9497 34.884 85.506 34.0421C86.0623 33.2001 86.358 32.211 86.3556 31.2C86.3653 30.5255 86.2401 29.856 85.9873 29.2312C85.7345 28.6064 85.3594 28.0392 84.8843 27.5634C84.4091 27.0875 83.8437 26.7127 83.2216 26.4613C82.5995 26.2099 81.9335 26.087 81.2632 26.1ZM81.2632 34.296C80.6474 34.3393 80.0328 34.1952 79.4993 33.8824C78.9659 33.5697 78.5384 33.1026 78.2722 32.5421C78.0061 31.9816 77.9137 31.3534 78.0071 30.7394C78.1004 30.1253 78.3752 29.5537 78.7957 29.0988C79.2162 28.644 79.763 28.3269 80.3649 28.1889C80.9669 28.0509 81.5962 28.0983 82.171 28.3249C82.7459 28.5515 83.2397 28.9469 83.5882 29.4596C83.9368 29.9724 84.124 30.5788 84.1255 31.2C84.1447 31.5936 84.0854 31.9871 83.951 32.3573C83.8167 32.7275 83.61 33.0668 83.3433 33.3554C83.0765 33.6439 82.755 33.8758 82.3978 34.0374C82.0406 34.1989 81.6548 34.2868 81.2632 34.296ZM70.1483 26.1C69.1435 26.1024 68.1619 26.4045 67.3277 26.9682C66.4936 27.5319 65.8443 28.3318 65.4619 29.2668C65.0796 30.2018 64.9814 31.2299 65.1797 32.221C65.3781 33.2122 65.8641 34.1219 66.5762 34.8352C67.2884 35.5484 68.1948 36.0331 69.1808 36.2281C70.1667 36.423 71.188 36.3193 72.1154 35.9302C73.0428 35.5411 73.8348 34.884 74.3911 34.0421C74.9473 33.2001 75.243 32.211 75.2406 31.2C75.2504 30.5255 75.1251 29.856 74.8723 29.2312C74.6196 28.6064 74.2444 28.0392 73.7693 27.5634C73.2941 27.0875 72.7287 26.7127 72.1066 26.4613C71.4845 26.2099 70.8185 26.087 70.1483 26.1ZM70.1483 34.296C69.5324 34.3393 68.9178 34.1952 68.3844 33.8824C67.851 33.5697 67.4234 33.1026 67.1573 32.5421C66.8911 31.9816 66.7988 31.3534 66.8921 30.7394C66.9855 30.1253 67.2603 29.5537 67.6808 29.0988C68.1013 28.644 68.648 28.3269 69.25 28.1889C69.8519 28.0509 70.4812 28.0983 71.0561 28.3249C71.6309 28.5515 72.1247 28.9469 72.4732 29.4596C72.8218 29.9724 73.009 30.5788 73.0105 31.2C73.0297 31.5936 72.9704 31.9871 72.8361 32.3573C72.7017 32.7275 72.4951 33.0668 72.2283 33.3554C71.9616 33.6439 71.6401 33.8758 71.2828 34.0374C70.9256 34.1989 70.5398 34.2868 70.1483 34.296ZM56.9343 27.672V29.832H62.0863C62.0056 30.8493 61.5853 31.8093 60.8938 32.556C60.377 33.0858 59.7554 33.5005 59.0692 33.7734C58.3831 34.0463 57.6476 34.1711 56.9105 34.14C55.3923 34.14 53.9362 33.5331 52.8627 32.4529C51.7892 31.3727 51.186 29.9076 51.186 28.38C51.186 26.8523 51.7892 25.3873 52.8627 24.307C53.9362 23.2268 55.3923 22.62 56.9105 22.62C58.366 22.5982 59.7714 23.1544 60.8222 24.168L62.3368 22.644C61.626 21.9366 60.782 21.379 59.8544 21.004C58.9267 20.629 57.934 20.444 56.9343 20.46C55.8741 20.4185 54.8165 20.5927 53.8248 20.9723C52.8331 21.352 51.9278 21.9291 51.1631 22.6692C50.3984 23.4093 49.79 24.2971 49.3745 25.2794C48.9589 26.2617 48.7448 27.3184 48.7448 28.386C48.7448 29.4536 48.9589 30.5102 49.3745 31.4925C49.79 32.4749 50.3984 33.3627 51.1631 34.1028C51.9278 34.8429 52.8331 35.42 53.8248 35.7996C54.8165 36.1792 55.8741 36.3535 56.9343 36.312C57.9545 36.353 58.9718 36.1764 59.9193 35.7938C60.8668 35.4112 61.7232 34.8312 62.4322 34.092C63.6846 32.7077 64.3519 30.887 64.2926 29.016C64.2969 28.5657 64.261 28.1158 64.1853 27.672H56.9343ZM110.971 29.352C110.66 28.4313 110.078 27.6273 109.303 27.0466C108.528 26.4659 107.595 26.1358 106.63 26.1C105.977 26.0987 105.332 26.2321 104.733 26.4918C104.133 26.7516 103.594 27.1322 103.147 27.6102C102.699 28.0882 102.355 28.6534 102.133 29.2708C101.912 29.8883 101.819 30.5449 101.859 31.2C101.849 32.2954 102.191 33.3647 102.835 34.2483C103.479 35.1318 104.389 35.7822 105.43 36.1022C106.471 36.4221 107.588 36.3946 108.612 36.0236C109.636 35.6527 110.514 34.9582 111.114 34.044L109.385 32.844C109.127 33.2763 108.761 33.6333 108.324 33.8796C107.887 34.1259 107.393 34.2529 106.892 34.248C106.375 34.2695 105.864 34.1331 105.425 33.8568C104.987 33.5805 104.642 33.1773 104.435 32.7L111.221 29.88L110.971 29.352ZM104.054 31.056C104.03 30.6832 104.079 30.3094 104.201 29.9563C104.322 29.6033 104.512 29.2781 104.76 28.9998C105.007 28.7215 105.308 28.4958 105.643 28.3358C105.978 28.1758 106.342 28.0847 106.713 28.068C107.097 28.0444 107.48 28.1354 107.813 28.3297C108.146 28.5239 108.415 28.8127 108.586 29.16L104.054 31.056ZM98.5439 36H100.774V21H98.5439V36ZM94.8946 27.24H94.8111C94.4779 26.8582 94.0668 26.5533 93.6057 26.3462C93.1446 26.1391 92.6446 26.0347 92.1397 26.04C90.8364 26.1036 89.6074 26.6693 88.7074 27.6199C87.8073 28.5705 87.3053 29.8331 87.3053 31.146C87.3053 32.4589 87.8073 33.7215 88.7074 34.6721C89.6074 35.6227 90.8364 36.1884 92.1397 36.252C92.6453 36.2622 93.1469 36.1599 93.6087 35.9525C94.0705 35.745 94.4811 35.4376 94.8111 35.052H94.8946V35.784C94.8946 37.74 93.857 38.784 92.1874 38.784C91.6296 38.7717 91.0881 38.5928 90.6316 38.2702C90.175 37.9476 89.8241 37.4957 89.6233 36.972L87.6913 37.776C88.0485 38.6787 88.6695 39.451 89.4723 39.991C90.2751 40.5309 91.2219 40.813 92.1874 40.8C94.7992 40.8 96.9578 39.252 96.9578 35.484V26.4H94.8946V27.24ZM92.3305 34.296C91.5491 34.247 90.8157 33.9001 90.2796 33.326C89.7435 32.7519 89.4451 31.9937 89.4451 31.206C89.4451 30.4182 89.7435 29.6601 90.2796 29.086C90.8157 28.5119 91.5491 28.165 92.3305 28.116C92.7124 28.1326 93.0871 28.2263 93.4323 28.3915C93.7775 28.5568 94.0861 28.7903 94.3398 29.078C94.5935 29.3657 94.787 29.7019 94.909 30.0664C95.0309 30.431 95.0788 30.8165 95.0496 31.2C95.0821 31.5848 95.0368 31.9723 94.9162 32.339C94.7957 32.7056 94.6025 33.0439 94.3483 33.3333C94.0942 33.6227 93.7843 33.8573 93.4375 34.0227C93.0906 34.1882 92.714 34.2811 92.3305 34.296ZM121.418 21H116.075V36H118.305V30.312H121.418C122.053 30.3579 122.692 30.2716 123.293 30.0585C123.894 29.8453 124.444 29.5098 124.911 29.073C125.377 28.6361 125.749 28.1073 126.004 27.5194C126.258 26.9315 126.389 26.2972 126.389 25.656C126.389 25.0148 126.258 24.3805 126.004 23.7926C125.749 23.2047 125.377 22.6758 124.911 22.239C124.444 21.8021 123.894 21.4667 123.293 21.2535C122.692 21.0403 122.053 20.954 121.418 21ZM121.418 28.2H118.305V23.088H121.466C121.801 23.088 122.133 23.1544 122.442 23.2835C122.752 23.4125 123.033 23.6017 123.27 23.8401C123.507 24.0786 123.695 24.3617 123.823 24.6732C123.952 24.9848 124.018 25.3187 124.018 25.656C124.018 25.9932 123.952 26.3271 123.823 26.6387C123.695 26.9503 123.507 27.2334 123.27 27.4718C123.033 27.7103 122.752 27.8994 122.442 28.0285C122.133 28.1576 121.801 28.224 121.466 28.224L121.418 28.2ZM135.18 26.052C134.368 26.0016 133.559 26.1918 132.853 26.5992C132.148 27.0066 131.576 27.6132 131.209 28.344L133.177 29.172C133.376 28.8113 133.674 28.5162 134.036 28.3224C134.398 28.1286 134.808 28.0444 135.216 28.08C135.499 28.0467 135.786 28.0705 136.06 28.15C136.334 28.2294 136.589 28.363 136.811 28.5428C137.033 28.7227 137.217 28.9452 137.353 29.1974C137.489 29.4497 137.573 29.7266 137.601 30.012V30.156C136.884 29.7767 136.086 29.579 135.276 29.58C133.153 29.58 130.982 30.78 130.982 32.964C131.003 33.4282 131.117 33.8834 131.316 34.3026C131.515 34.7219 131.796 35.0965 132.142 35.4043C132.488 35.7121 132.892 35.9469 133.33 36.0945C133.768 36.2422 134.231 36.2998 134.691 36.264C135.251 36.2951 135.809 36.176 136.308 35.9187C136.806 35.6614 137.228 35.2753 137.53 34.8H137.601V36H139.748V30.228C139.748 27.6 137.768 26.076 135.228 26.076L135.18 26.052ZM134.906 34.272C134.179 34.272 133.165 33.9 133.165 33C133.165 31.8 134.429 31.392 135.55 31.392C136.259 31.3744 136.959 31.5484 137.577 31.896C137.503 32.5477 137.195 33.1499 136.713 33.5912C136.231 34.0325 135.606 34.2829 134.954 34.296L134.906 34.272ZM147.571 26.4L145.019 32.904H144.948L142.3 26.4H139.915L143.886 35.496L141.62 40.548H143.946L150.052 26.4H147.571ZM127.536 36H129.754V21H127.536V36Z" fill="white"/>
        <path d="M12.4508 9.04799C12.0578 9.51553 11.8573 10.1165 11.8903 10.728V37.272C11.8497 37.8844 12.0511 38.4882 12.4508 38.952L12.5343 39.048L27.3105 24.18V23.82L12.5343 8.96399L12.4508 9.04799Z" fill="url(#paint0_linear_1_128)"/>
        <path d="M32.2001 29.136L27.3104 24.18V23.82L32.2001 18.864L32.3074 18.936L38.163 22.272C39.8326 23.22 39.8326 24.78 38.163 25.74L32.3312 29.076L32.2001 29.136Z" fill="url(#paint1_linear_1_128)"/>
        <path d="M32.343 29.064L27.3103 24L12.4506 38.952C12.7876 39.2538 13.2189 39.4275 13.6698 39.4428C14.1207 39.4582 14.5627 39.3142 14.9192 39.036L32.343 29.064Z" fill="url(#paint2_linear_1_128)"/>
        <path d="M32.343 18.936L14.9192 8.97601C14.5651 8.69391 14.1234 8.54648 13.6719 8.55965C13.2203 8.57282 12.7879 8.74574 12.4506 9.04801L27.3103 24L32.343 18.936Z" fill="url(#paint3_linear_1_128)"/>
        <path opacity="0.2" d="M32.1999 28.9559L14.9192 38.8559C14.5757 39.1168 14.157 39.2579 13.7266 39.2579C13.2962 39.2579 12.8776 39.1168 12.534 38.8559L12.4506 38.9399L12.534 39.0359C12.8776 39.2968 13.2962 39.4379 13.7266 39.4379C14.157 39.4379 14.5757 39.2968 14.9192 39.0359L32.343 29.0639L32.1999 28.9559Z" fill="black"/>
        <path opacity="0.12" d="M12.4507 38.784C12.0676 38.3081 11.8799 37.7028 11.9259 37.092V37.272C11.8853 37.8845 12.0868 38.4883 12.4864 38.952L12.5699 38.868L12.4507 38.784Z" fill="black"/>
        <path opacity="0.12" d="M38.163 25.56L32.2001 28.956L32.3074 29.064L38.163 25.728C38.5087 25.5809 38.8085 25.3428 39.031 25.0387C39.2535 24.7346 39.3903 24.3758 39.4272 24C39.3526 24.3415 39.1994 24.6606 38.9798 24.9315C38.7602 25.2025 38.4805 25.4178 38.163 25.56Z" fill="black"/>
        <path opacity="0.25" d="M14.9193 9.14402L38.163 22.44C38.4804 22.5823 38.7601 22.7975 38.9797 23.0685C39.1993 23.3395 39.3525 23.6585 39.4271 24C39.3903 23.6242 39.2534 23.2654 39.0309 22.9613C38.8084 22.6572 38.5086 22.4191 38.163 22.272L14.9193 8.97602C13.2616 8.01602 11.8901 8.80802 11.8901 10.728V10.908C11.9259 8.98802 13.2616 8.19602 14.9193 9.14402Z" fill="white"/>
        <path d="M48.8247 18.2867V15.8756H48.9827C49.1875 15.8756 49.3514 15.8255 49.4742 15.7254C49.5971 15.6253 49.6995 15.4251 49.7815 15.1248C49.8692 14.8187 49.9365 14.3682 49.9833 13.7735L50.2379 10.488H54.1351V15.8756H55.0392V18.2867H54.1351V16.7146H49.7288V18.2867H48.8247ZM53.231 15.8756V11.3271H51.0717L50.8874 13.8177C50.8172 14.8128 50.6358 15.4987 50.3432 15.8756H53.231Z" fill="white"/>
        <path d="M57.9131 16.8029C57.4508 16.8029 57.0383 16.7028 56.6755 16.5026C56.3127 16.3024 56.0289 16.0228 55.8241 15.6636C55.6193 15.3044 55.5169 14.8952 55.5169 14.4359C55.5169 13.9767 55.6193 13.5675 55.8241 13.2083C56.0289 12.8491 56.3127 12.5694 56.6755 12.3693C57.0383 12.1632 57.4508 12.0601 57.9131 12.0601C58.3754 12.0601 58.7879 12.1632 59.1507 12.3693C59.5135 12.5694 59.7973 12.8491 60.0021 13.2083C60.207 13.5675 60.3094 13.9767 60.3094 14.4359C60.3094 14.8952 60.207 15.3044 60.0021 15.6636C59.7973 16.0228 59.5135 16.3024 59.1507 16.5026C58.7879 16.7028 58.3754 16.8029 57.9131 16.8029ZM57.9131 16.008C58.3578 16.008 58.7177 15.8638 58.9927 15.5753C59.2736 15.2868 59.4141 14.907 59.4141 14.4359C59.4141 13.9649 59.2736 13.5851 58.9927 13.2966C58.7177 13.0022 58.3578 12.855 57.9131 12.855C57.4684 12.855 57.1085 13.0022 56.8335 13.2966C56.5584 13.5851 56.4209 13.9649 56.4209 14.4359C56.4209 14.9011 56.5584 15.2809 56.8335 15.5753C57.1085 15.8638 57.4684 16.008 57.9131 16.008Z" fill="white"/>
        <path d="M63.3209 16.8029C62.8703 16.8029 62.4636 16.7028 62.1008 16.5026C61.7438 16.2965 61.4659 16.0139 61.2669 15.6548C61.068 15.2956 60.9685 14.8893 60.9685 14.4359C60.9685 13.9767 61.068 13.5675 61.2669 13.2083C61.4659 12.8491 61.7438 12.5694 62.1008 12.3693C62.4577 12.1632 62.8644 12.0601 63.3209 12.0601C63.8065 12.0601 64.2396 12.1779 64.6199 12.4134C65.0061 12.6489 65.2812 12.9875 65.445 13.4291L64.6375 13.5616C64.5321 13.3496 64.3654 13.1789 64.1372 13.0493C63.9148 12.9198 63.6603 12.855 63.3735 12.855C62.9288 12.855 62.566 13.0022 62.2851 13.2966C62.0101 13.591 61.8726 13.9708 61.8726 14.4359C61.8726 14.9011 62.0101 15.2809 62.2851 15.5753C62.566 15.8638 62.9288 16.008 63.3735 16.008C63.672 16.008 63.9353 15.9403 64.1635 15.8049C64.3976 15.6695 64.5673 15.4899 64.6726 15.2661L65.4801 15.3986C65.3163 15.8461 65.0354 16.1935 64.6375 16.4408C64.2454 16.6822 63.8065 16.8029 63.3209 16.8029Z" fill="white"/>
        <path d="M68.1359 16.7146H67.2757V12.9433H65.7046V12.1485H69.7071V12.9433H68.1359V16.7146Z" fill="white"/>
        <path d="M73.7709 12.1485H74.6574L72.7614 17.4035C72.621 17.798 72.4367 18.0836 72.2085 18.2602C71.9803 18.4368 71.676 18.5252 71.2956 18.5252H70.6197L70.5407 17.7303H71.3483C71.518 17.7303 71.6496 17.692 71.7433 17.6155C71.8369 17.5448 71.9159 17.4182 71.9803 17.2357L72.0768 16.9707L70.058 12.1485H70.9796L72.4191 15.6724H72.542L73.7709 12.1485Z" fill="white"/>
        <path d="M76.2954 16.7146H75.4352V12.1485H79.2973V16.7146H78.4371V12.9433H76.2954V16.7146Z" fill="white"/>
        <path d="M83.5298 14.012V12.1485H84.39V16.7146H83.5298V14.8069H81.3442V16.7146H80.484V12.1485H81.3442V14.012H83.5298Z" fill="white"/>
        <path d="M87.7085 16.8029C87.2463 16.8029 86.8337 16.7028 86.4709 16.5026C86.1081 16.3024 85.8243 16.0228 85.6195 15.6636C85.4147 15.3044 85.3123 14.8952 85.3123 14.4359C85.3123 13.9767 85.4147 13.5675 85.6195 13.2083C85.8243 12.8491 86.1081 12.5694 86.4709 12.3693C86.8337 12.1632 87.2463 12.0601 87.7085 12.0601C88.1708 12.0601 88.5834 12.1632 88.9462 12.3693C89.309 12.5694 89.5928 12.8491 89.7976 13.2083C90.0024 13.5675 90.1048 13.9767 90.1048 14.4359C90.1048 14.8952 90.0024 15.3044 89.7976 15.6636C89.5928 16.0228 89.309 16.3024 88.9462 16.5026C88.5834 16.7028 88.1708 16.8029 87.7085 16.8029ZM87.7085 16.008C88.1533 16.008 88.5131 15.8638 88.7882 15.5753C89.0691 15.2868 89.2095 14.907 89.2095 14.4359C89.2095 13.9649 89.0691 13.5851 88.7882 13.2966C88.5131 13.0022 88.1533 12.855 87.7085 12.855C87.2638 12.855 86.9039 13.0022 86.6289 13.2966C86.3539 13.5851 86.2164 13.9649 86.2164 14.4359C86.2164 14.9011 86.3539 15.2809 86.6289 15.5753C86.9039 15.8638 87.2638 16.008 87.7085 16.008Z" fill="white"/>
        <path d="M96.1466 14.3211C96.3806 14.4094 96.5679 14.5537 96.7083 14.7539C96.8546 14.9482 96.9278 15.1778 96.9278 15.4428C96.9278 15.6842 96.8576 15.9021 96.7171 16.0964C96.5825 16.2907 96.3923 16.4437 96.1466 16.5556C95.9008 16.6616 95.6199 16.7146 95.3039 16.7146H93.1359V12.1485H95.2249C95.5234 12.1485 95.7896 12.2014 96.0237 12.3074C96.2578 12.4134 96.4392 12.5577 96.5679 12.7402C96.7025 12.9227 96.7698 13.1317 96.7698 13.3673C96.7698 13.591 96.7142 13.7853 96.603 13.9502C96.4977 14.1092 96.3455 14.2328 96.1466 14.3211ZM93.9961 12.8815V14.0032H95.2249C95.4239 14.0032 95.5877 13.9531 95.7165 13.853C95.8452 13.747 95.9096 13.6116 95.9096 13.4468C95.9096 13.2819 95.8452 13.1465 95.7165 13.0405C95.5877 12.9345 95.4239 12.8815 95.2249 12.8815H93.9961ZM95.3039 15.9815C95.5322 15.9815 95.7165 15.9227 95.8569 15.8049C95.9974 15.6871 96.0676 15.5341 96.0676 15.3456C96.0676 15.1572 95.9974 15.0041 95.8569 14.8864C95.7165 14.7686 95.5322 14.7097 95.3039 14.7097H93.9961V15.9815H95.3039Z" fill="white"/>
    </g>
    <defs>
        <linearGradient id="paint0_linear_1_128" x1="25.9986" y1="10.452" x2="5.86302" y2="30.4633" gradientUnits="userSpaceOnUse">
            <stop stop-color="#00A0FF"/>
            <stop offset="0.01" stop-color="#00A1FF"/>
            <stop offset="0.26" stop-color="#00BEFF"/>
            <stop offset="0.51" stop-color="#00D2FF"/>
            <stop offset="0.76" stop-color="#00DFFF"/>
            <stop offset="1" stop-color="#00E3FF"/>
        </linearGradient>
        <linearGradient id="paint1_linear_1_128" x1="40.3455" y1="24" x2="11.4967" y2="24" gradientUnits="userSpaceOnUse">
            <stop stop-color="#FFE000"/>
            <stop offset="0.41" stop-color="#FFBD00"/>
            <stop offset="0.78" stop-color="#FFA500"/>
            <stop offset="1" stop-color="#FF9C00"/>
        </linearGradient>
        <linearGradient id="paint2_linear_1_128" x1="29.612" y1="26.76" x2="2.30056" y2="53.8909" gradientUnits="userSpaceOnUse">
            <stop stop-color="#FF3A44"/>
            <stop offset="1" stop-color="#C31162"/>
        </linearGradient>
        <linearGradient id="paint3_linear_1_128" x1="8.70582" y1="0.216013" x2="20.8976" y2="12.3325" gradientUnits="userSpaceOnUse">
            <stop stop-color="#32A071"/>
            <stop offset="0.07" stop-color="#2DA771"/>
            <stop offset="0.48" stop-color="#15CF74"/>
            <stop offset="0.8" stop-color="#06E775"/>
            <stop offset="1" stop-color="#00F076"/>
        </linearGradient>
        <clipPath id="clip0_1_128">
            <rect width="161" height="48" fill="white"/>
        </clipPath>
    </defs>
</svg>
