<svg width="338" height="238" viewBox="0 0 338 238" fill="none" xmlns="http://www.w3.org/2000/svg">
    <g clip-path="url(#clip0_1_132)">
        <path d="M141.607 83.3032L174.56 0L159.015 83.3032H141.607Z" fill="#FFDD00"/>
        <path d="M160.517 155.973H176.993L145.044 238L160.517 155.973Z" fill="#FFDD00"/>
        <path d="M146.449 156.166L159.007 83.3193H173.075L160.533 156.166H146.449Z" fill="#FFDD00"/>
        <path d="M83.5385 156.166L80.2303 141.816H70.1775L66.8693 156.166H53.2835L69.3906 83.3193H81.0172L97.1243 156.166H83.5385ZM78.2872 129.248L75.0353 113.222L71.9038 129.248H78.2872Z" fill="white"/>
        <path d="M128.528 156.166L119.848 133.991L111.778 156.166H96.9396L112.693 117.74L98.5455 83.3193H111.931L119.791 102.059L127.564 83.3193H141.559L126.986 117.748L142.94 156.166H128.528Z" fill="white"/>
        <path d="M220.36 156.166V120.051L211.978 144.689H204.149L196.553 120.34V156.166H183.023V83.3193H195.598L208.38 119.048L220.513 83.3193H233.89V156.166H220.36Z" fill="white"/>
        <path d="M324.462 169.8V119.337L316.08 143.967H308.251L300.663 119.626V155.451H287.133V82.605H299.708L312.482 118.326L324.615 82.605H338V169.8H324.462Z" fill="white"/>
        <path d="M0 170.523V83.3193H12.5741L25.357 119.048L37.4815 83.3193H50.8666V156.165H37.337V120.051L28.9542 144.689H21.1175L13.5296 120.34V170.523H0Z" fill="white"/>
        <path d="M260.516 157.538C258.508 157.538 256.413 157.225 254.293 156.615C252.125 155.989 250.085 154.833 248.247 153.18C246.496 151.607 245.067 149.448 243.879 146.583C242.859 144.119 242.377 140.861 242.377 136.343V83.3113H255.907V137.852C255.907 140.179 256.244 141.616 257.039 142.667C257.89 143.79 258.838 144.232 260.427 144.232C262.09 144.232 263.238 143.734 264.049 142.667C264.924 141.503 265.349 139.93 265.349 137.852V83.3113H278.879V136.343C278.879 140.508 278.325 143.951 277.241 146.583C276.085 149.368 274.607 151.583 272.833 153.18C271.002 154.825 268.955 155.981 266.739 156.615C264.627 157.225 262.531 157.538 260.516 157.538Z" fill="white"/>
    </g>
    <defs>
        <clipPath id="clip0_1_132">
            <rect width="338" height="238" fill="white"/>
        </clipPath>
    </defs>
</svg>
