<svg width="161" height="48" viewBox="0 0 161 48" fill="none" xmlns="http://www.w3.org/2000/svg">
    <g clip-path="url(#clip0_1_131)">
        <path d="M155.037 -0.192017H5.96296C2.66971 -0.192017 0 2.49427 0 5.80798V41.808C0 45.1217 2.66971 47.808 5.96296 47.808H155.037C158.33 47.808 161 45.1217 161 41.808V5.80798C161 2.49427 158.33 -0.192017 155.037 -0.192017Z" fill="black"/>
        <path d="M155.037 0.767984C156.365 0.767984 157.64 1.29898 158.579 2.24416C159.518 3.18935 160.046 4.47129 160.046 5.80798V41.808C160.046 43.1447 159.518 44.4266 158.579 45.3718C157.64 46.317 156.365 46.848 155.037 46.848H5.96296C4.63452 46.848 3.36049 46.317 2.42114 45.3718C1.48179 44.4266 0.954074 43.1447 0.954074 41.808V5.80798C0.954074 4.47129 1.48179 3.18935 2.42114 2.24416C3.36049 1.29898 4.63452 0.767984 5.96296 0.767984H155.037ZM155.037 -0.192017H5.96296C4.38149 -0.192017 2.86478 0.440124 1.74651 1.56534C0.628239 2.69056 0 4.21668 0 5.80798V41.808C0 43.3993 0.628239 44.9254 1.74651 46.0506C2.86478 47.1758 4.38149 47.808 5.96296 47.808H155.037C156.619 47.808 158.135 47.1758 159.254 46.0506C160.372 44.9254 161 43.3993 161 41.808V5.80798C161 4.21668 160.372 2.69056 159.254 1.56534C158.135 0.440124 156.619 -0.192017 155.037 -0.192017Z" fill="black"/>
        <path d="M42.3031 19.2362V16.825H42.4611C42.6659 16.825 42.8297 16.775 42.9526 16.6749C43.0755 16.5748 43.1779 16.3746 43.2598 16.0743C43.3476 15.7681 43.4149 15.3177 43.4617 14.723L43.7163 11.4375H47.6135V16.825H48.5176V19.2362H47.6135V17.6641H43.2072V19.2362H42.3031ZM46.7094 16.825V12.2765H44.5501L44.3658 14.7672C44.2956 15.7622 44.1142 16.4482 43.8216 16.825H46.7094Z" fill="white"/>
        <path d="M51.3915 17.7524C50.9292 17.7524 50.5167 17.6523 50.1539 17.4521C49.7911 17.2519 49.5073 16.9722 49.3025 16.6131C49.0976 16.2539 48.9952 15.8447 48.9952 15.3854C48.9952 14.9261 49.0976 14.5169 49.3025 14.1578C49.5073 13.7986 49.7911 13.5189 50.1539 13.3187C50.5167 13.1126 50.9292 13.0096 51.3915 13.0096C51.8538 13.0096 52.2663 13.1126 52.6291 13.3187C52.9919 13.5189 53.2757 13.7986 53.4805 14.1578C53.6853 14.5169 53.7878 14.9261 53.7878 15.3854C53.7878 15.8447 53.6853 16.2539 53.4805 16.6131C53.2757 16.9722 52.9919 17.2519 52.6291 17.4521C52.2663 17.6523 51.8538 17.7524 51.3915 17.7524ZM51.3915 16.9575C51.8362 16.9575 52.1961 16.8132 52.4711 16.5247C52.752 16.2362 52.8924 15.8564 52.8924 15.3854C52.8924 14.9144 52.752 14.5346 52.4711 14.2461C52.1961 13.9517 51.8362 13.8045 51.3915 13.8045C50.9468 13.8045 50.5869 13.9517 50.3119 14.2461C50.0368 14.5346 49.8993 14.9144 49.8993 15.3854C49.8993 15.8506 50.0368 16.2303 50.3119 16.5247C50.5869 16.8132 50.9468 16.9575 51.3915 16.9575Z" fill="white"/>
        <path d="M56.7992 17.7524C56.3487 17.7524 55.942 17.6523 55.5792 17.4521C55.2222 17.246 54.9443 16.9634 54.7453 16.6042C54.5464 16.2451 54.4469 15.8388 54.4469 15.3854C54.4469 14.9261 54.5464 14.5169 54.7453 14.1578C54.9443 13.7986 55.2222 13.5189 55.5792 13.3187C55.9361 13.1126 56.3428 13.0096 56.7992 13.0096C57.2849 13.0096 57.718 13.1274 58.0983 13.3629C58.4845 13.5984 58.7596 13.937 58.9234 14.3786L58.1159 14.511C58.0105 14.2991 57.8438 14.1283 57.6156 13.9988C57.3932 13.8692 57.1386 13.8045 56.8519 13.8045C56.4072 13.8045 56.0444 13.9517 55.7635 14.2461C55.4885 14.5405 55.351 14.9203 55.351 15.3854C55.351 15.8506 55.4885 16.2303 55.7635 16.5247C56.0444 16.8132 56.4072 16.9575 56.8519 16.9575C57.1503 16.9575 57.4137 16.8898 57.6419 16.7544C57.876 16.6189 58.0457 16.4394 58.151 16.2156L58.9585 16.3481C58.7947 16.7956 58.5138 17.143 58.1159 17.3903C57.7238 17.6317 57.2849 17.7524 56.7992 17.7524Z" fill="white"/>
        <path d="M61.6143 17.6641H60.7541V13.8928H59.183V13.0979H63.1855V13.8928H61.6143V17.6641Z" fill="white"/>
        <path d="M67.2493 13.0979H68.1358L66.2398 18.353C66.0994 18.7475 65.9151 19.033 65.6869 19.2097C65.4586 19.3863 65.1544 19.4746 64.774 19.4746H64.0981L64.0191 18.6797H64.8267C64.9964 18.6797 65.128 18.6415 65.2217 18.5649C65.3153 18.4943 65.3943 18.3677 65.4586 18.1851L65.5552 17.9202L63.5364 13.0979H64.458L65.8975 16.6219H66.0204L67.2493 13.0979Z" fill="white"/>
        <path d="M69.7738 17.6641H68.9136V13.0979H72.7757V17.6641H71.9155V13.8928H69.7738V17.6641Z" fill="white"/>
        <path d="M77.0082 14.9615V13.0979H77.8684V17.6641H77.0082V15.7563H74.8226V17.6641H73.9624V13.0979H74.8226V14.9615H77.0082Z" fill="white"/>
        <path d="M81.1869 17.7524C80.7247 17.7524 80.3121 17.6523 79.9493 17.4521C79.5865 17.2519 79.3027 16.9722 79.0979 16.6131C78.8931 16.2539 78.7907 15.8447 78.7907 15.3854C78.7907 14.9261 78.8931 14.5169 79.0979 14.1578C79.3027 13.7986 79.5865 13.5189 79.9493 13.3187C80.3121 13.1126 80.7247 13.0096 81.1869 13.0096C81.6492 13.0096 82.0618 13.1126 82.4246 13.3187C82.7874 13.5189 83.0712 13.7986 83.276 14.1578C83.4808 14.5169 83.5832 14.9261 83.5832 15.3854C83.5832 15.8447 83.4808 16.2539 83.276 16.6131C83.0712 16.9722 82.7874 17.2519 82.4246 17.4521C82.0618 17.6523 81.6492 17.7524 81.1869 17.7524ZM81.1869 16.9575C81.6317 16.9575 81.9915 16.8132 82.2666 16.5247C82.5474 16.2362 82.6879 15.8564 82.6879 15.3854C82.6879 14.9144 82.5474 14.5346 82.2666 14.2461C81.9915 13.9517 81.6317 13.8045 81.1869 13.8045C80.7422 13.8045 80.3823 13.9517 80.1073 14.2461C79.8323 14.5346 79.6948 14.9144 79.6948 15.3854C79.6948 15.8506 79.8323 16.2303 80.1073 16.5247C80.3823 16.8132 80.7422 16.9575 81.1869 16.9575Z" fill="white"/>
        <path d="M89.625 15.2706C89.859 15.3589 90.0463 15.5032 90.1867 15.7034C90.333 15.8977 90.4062 16.1273 90.4062 16.3923C90.4062 16.6337 90.3359 16.8515 90.1955 17.0458C90.0609 17.2401 89.8707 17.3932 89.625 17.5051C89.3792 17.6111 89.0983 17.6641 88.7823 17.6641H86.6143V13.0979H88.7033C89.0018 13.0979 89.268 13.1509 89.5021 13.2569C89.7362 13.3629 89.9176 13.5071 90.0463 13.6897C90.1809 13.8722 90.2482 14.0812 90.2482 14.3167C90.2482 14.5405 90.1926 14.7348 90.0814 14.8996C89.9761 15.0586 89.8239 15.1823 89.625 15.2706ZM87.4745 13.831V14.9526H88.7033C88.9023 14.9526 89.0661 14.9026 89.1949 14.8025C89.3236 14.6965 89.388 14.5611 89.388 14.3962C89.388 14.2314 89.3236 14.0959 89.1949 13.9899C89.0661 13.884 88.9023 13.831 88.7033 13.831H87.4745ZM88.7823 16.931C89.0106 16.931 89.1949 16.8721 89.3353 16.7544C89.4758 16.6366 89.546 16.4835 89.546 16.2951C89.546 16.1067 89.4758 15.9536 89.3353 15.8358C89.1949 15.7181 89.0106 15.6592 88.7823 15.6592H87.4745V16.931H88.7823Z" fill="white"/>
        <path d="M52.3271 34.8465H52.8202V21.8923H51.2792V27.9555L51.4435 31.6597L43.0809 21.913H42.5466V34.8258H44.0671V28.6177L43.9438 25.0791L52.3271 34.8465ZM64.2033 31.639L65.7033 34.8258H67.2854V34.6189L61.3678 21.8509H60.6692L54.69 34.6189V34.8258H56.2927L57.7926 31.639H64.2033ZM60.998 24.2721L63.6896 30.3146H58.3063L60.998 24.2721ZM68.0867 31.3079C68.1689 33.9567 70.8606 35.1155 73.2441 35.0534C75.5659 34.9914 78.2165 33.9981 78.2165 31.2251C78.2165 28.3694 75.833 27.8935 73.2851 27.6037C71.7236 27.3968 69.8743 27.3347 69.8743 25.4102C69.8743 23.7133 71.6414 23.1132 73.0386 23.0718C74.4974 23.0718 76.2234 23.5892 76.3672 25.224H77.8055C77.7233 22.72 75.2166 21.6233 72.9975 21.6854C70.7373 21.6854 68.3333 22.8856 68.3333 25.4309C68.3333 28.0176 70.6757 28.6177 72.9975 28.8661C74.744 29.1144 76.6754 29.1351 76.6754 31.2251C76.6138 33.1082 74.7234 33.6463 73.203 33.7084C71.6208 33.7084 69.6483 33.0462 69.5456 31.3079H68.0662H68.0867ZM90.6064 34.8258V21.913H89.0653V27.3554H82.2848V21.913H80.7643V34.8258H82.2848V28.7626H89.0653V34.8258H90.6064ZM96.2158 30.8733C95.1062 30.8733 94.1405 30.8733 93.0515 30.8733C92.9693 36.5641 103.428 36.4192 103.428 30.9768C103.428 27.7486 100.942 27.4175 98.3937 27.1278C97.2431 27.0036 96.2774 26.7967 96.3596 25.8241C96.4623 24.2928 99.9142 24.1479 99.9142 25.8655C101.024 25.8655 101.866 25.8655 103.037 25.8655C103.12 20.2989 93.1337 20.2989 93.257 25.8655C93.2981 28.6798 95.1268 29.6317 97.9212 29.8387C99.1951 29.9214 100.264 30.0663 100.264 30.9561C100.264 32.4667 96.2568 32.5081 96.2568 30.8733H96.2158ZM107.702 24.8515V34.8258C108.791 34.8258 109.859 34.8258 110.948 34.8258V24.8515H114.092C114.092 23.8582 114.092 22.8856 114.092 21.8923H104.558C104.558 22.8649 104.558 23.8582 104.558 24.8515H107.702ZM128.495 28.3694C128.495 19.4298 115.325 19.4298 115.325 28.3694C115.325 37.3297 128.495 37.3297 128.495 28.3694ZM118.715 28.3694C118.715 23.7133 125.146 23.7133 125.146 28.3694C125.146 33.0669 118.715 33.0669 118.715 28.3694ZM139.303 30.2318C142.55 28.0176 141.625 21.913 136.591 21.8923C134.721 21.8923 132.81 21.8923 130.961 21.8923C130.961 26.2173 130.961 30.5215 130.961 34.8051C132.029 34.8051 133.139 34.8051 134.249 34.8051V30.9975H135.954L138.152 34.8051H141.81V34.3292L139.303 30.2318ZM136.591 28.0383H134.249C134.249 27.0036 134.249 25.9069 134.249 24.8515C135.009 24.8515 135.831 24.8308 136.591 24.8515C138.461 24.8722 138.378 28.0383 136.591 28.0383ZM151.796 21.8923C148.796 21.8923 146.762 21.8923 143.782 21.8923C143.782 26.1759 143.782 30.5008 143.782 34.8051C146.762 34.8051 148.96 34.8051 151.96 34.8051C151.96 33.8325 151.96 32.8392 151.96 31.8666C150.029 31.8666 148.94 31.8666 147.049 31.8666C147.049 31.101 147.049 30.356 147.049 29.5903H151.405C151.405 28.6177 151.405 27.6244 151.405 26.6518H147.049V24.8308C148.94 24.8308 149.885 24.8308 151.796 24.8308C151.796 23.8375 151.796 22.8442 151.796 21.8716V21.8923Z" fill="white"/>
        <path d="M31.1018 17.8777C31.2046 17.7121 31.0813 17.4845 30.8758 17.4845H26.6226C26.4171 17.4845 26.2938 17.6914 26.3965 17.8777L28.5129 21.5818C28.6156 21.7474 28.8622 21.7474 28.9649 21.5818L31.1018 17.8777Z" fill="#AE2B30"/>
        <path d="M26.6021 38.6541C26.4994 38.8197 26.6227 39.0473 26.8281 39.0473H31.0814C31.2869 39.0473 31.4101 38.8404 31.3074 38.6541L29.1705 34.95C29.0678 34.7844 28.8212 34.7844 28.7185 34.95L26.5816 38.6541H26.6021Z" fill="#AE2B30"/>
        <path d="M34.2661 22.1406C34.4716 22.1406 34.5949 21.9336 34.4921 21.7474L32.3552 18.0432C32.2525 17.8777 32.0059 17.8777 31.9032 18.0432L29.7663 21.7474C29.6636 21.9129 29.7868 22.1406 29.9923 22.1406H34.2456H34.2661Z" fill="#AE2B30"/>
        <path d="M31.9032 27.0036C32.0059 27.1691 32.2525 27.1691 32.3552 27.0036L34.4921 23.2994C34.5948 23.1339 34.4716 22.9062 34.2661 22.9062H30.0128C29.8074 22.9062 29.6841 23.1132 29.7868 23.2994L31.9237 27.0036H31.9032Z" fill="#AE2B30"/>
        <path d="M37.4714 27.7486C37.6769 27.7486 37.8002 27.5417 37.6975 27.3554L35.5606 23.6513C35.4578 23.4857 35.2113 23.4857 35.1085 23.6513L32.9716 27.3554C32.8689 27.521 32.9922 27.7486 33.1976 27.7486H37.4509H37.4714Z" fill="#AE2B30"/>
        <path d="M35.1291 32.6116C35.2318 32.7772 35.4784 32.7772 35.5811 32.6116L37.7181 28.9075C37.8208 28.7419 37.6975 28.5143 37.492 28.5143H33.2388C33.0333 28.5143 32.91 28.7212 33.0128 28.9075L35.1497 32.6116H35.1291Z" fill="#AE2B30"/>
        <path d="M29.7868 32.9841C29.6841 33.1496 29.8074 33.3773 30.0128 33.3773H34.2661C34.4716 33.3773 34.5948 33.1703 34.4921 32.9841L32.3552 29.2799C32.2525 29.1144 32.0059 29.1144 31.9032 29.2799L29.7663 32.9841H29.7868Z" fill="#AE2B30"/>
        <path d="M31.9032 38.2195C32.0059 38.3851 32.2525 38.3851 32.3552 38.2195L34.4921 34.5154C34.5948 34.3498 34.4716 34.1222 34.2661 34.1222H30.0128C29.8074 34.1222 29.6841 34.3291 29.7868 34.5154L31.9237 38.2195H31.9032Z" fill="#AE2B30"/>
        <path d="M22.657 17.6501C22.7598 17.4846 22.6365 17.257 22.431 17.257H18.1777C17.9723 17.257 17.849 17.4639 17.9517 17.6501L20.0681 21.3543C20.1708 21.5198 20.4174 21.5198 20.5201 21.3543L22.657 17.6501Z" fill="#363789"/>
        <path d="M17.8489 38.6334C17.7462 38.7989 17.8695 39.0266 18.075 39.0266H22.3282C22.5337 39.0266 22.657 38.8196 22.5542 38.6334L20.4173 34.9292C20.3146 34.7637 20.068 34.7637 19.9653 34.9292L17.8284 38.6334H17.8489Z" fill="#363789"/>
        <path d="M25.7597 22.1199C25.9651 22.1199 26.0884 21.913 25.9857 21.7268L23.8488 18.0226C23.746 17.8571 23.4995 17.8571 23.3967 18.0226L21.2598 21.7268C21.1571 21.8923 21.2804 22.1199 21.4858 22.1199H25.7391H25.7597Z" fill="#363789"/>
        <path d="M23.3967 26.9622C23.4994 27.1278 23.746 27.1278 23.8487 26.9622L25.9856 23.258C26.0884 23.0925 25.9651 22.8649 25.7596 22.8649H21.5064C21.3009 22.8649 21.1776 23.0718 21.2803 23.258L23.4172 26.9622H23.3967Z" fill="#363789"/>
        <path d="M28.965 27.7278C29.1704 27.7278 29.2937 27.5209 29.191 27.3347L27.0541 23.6305C26.9514 23.465 26.7048 23.465 26.6021 23.6305L24.4651 27.3347C24.3624 27.5002 24.4857 27.7278 24.6912 27.7278H28.9444H28.965Z" fill="#363789"/>
        <path d="M26.6225 32.5702C26.7253 32.7358 26.9718 32.7358 27.0746 32.5702L29.2115 28.8661C29.3142 28.7005 29.1909 28.4729 28.9854 28.4729H24.7322C24.5267 28.4729 24.4034 28.6798 24.5062 28.8661L26.6431 32.5702H26.6225Z" fill="#363789"/>
        <path d="M21.2803 32.9427C21.1776 33.1082 21.3009 33.3359 21.5064 33.3359H25.7596C25.9651 33.3359 26.0884 33.1289 25.9856 32.9427L23.8487 29.2385C23.746 29.073 23.4994 29.073 23.3967 29.2385L21.2598 32.9427H21.2803Z" fill="#363789"/>
        <path d="M23.3967 38.1781C23.4994 38.3437 23.746 38.3437 23.8487 38.1781L25.9856 34.474C26.0884 34.3084 25.9651 34.0808 25.7596 34.0808H21.5064C21.3009 34.0808 21.1776 34.2877 21.2803 34.474L23.4172 38.1781H23.3967Z" fill="#363789"/>
        <path d="M14.4792 17.5052C14.5819 17.3397 14.4586 17.1121 14.2531 17.1121H9.99988C9.79441 17.1121 9.67113 17.319 9.77387 17.5052L11.8902 21.2094C11.993 21.3749 12.2395 21.3749 12.3423 21.2094L14.4792 17.5052Z" fill="#D9DADA"/>
        <path d="M9.36298 38.4886C9.26024 38.6541 9.38352 38.8818 9.589 38.8818H13.8423C14.0477 38.8818 14.171 38.6748 14.0683 38.4886L11.9314 34.7844C11.8286 34.6189 11.5821 34.6189 11.4793 34.7844L9.34243 38.4886H9.36298Z" fill="#D9DADA"/>
        <path d="M17.7051 21.975C17.9106 21.975 18.0338 21.7681 17.9311 21.5819L15.7942 17.8777C15.6915 17.7122 15.4449 17.7122 15.3422 17.8777L13.2053 21.5819C13.1025 21.7474 13.2258 21.975 13.4313 21.975H17.6845H17.7051Z" fill="#D9DADA"/>
        <path d="M14.9107 26.8174C15.0135 26.983 15.26 26.983 15.3628 26.8174L17.4997 23.1133C17.6024 22.9477 17.4791 22.7201 17.2736 22.7201H13.0204C12.8149 22.7201 12.6916 22.927 12.7944 23.1133L14.9313 26.8174H14.9107Z" fill="#D9DADA"/>
        <path d="M20.4789 27.5831C20.6844 27.5831 20.8076 27.3761 20.7049 27.1899L18.568 23.4857C18.4653 23.3202 18.2187 23.3202 18.116 23.4857L15.9791 27.1899C15.8763 27.3554 15.9996 27.5831 16.2051 27.5831H20.4583H20.4789Z" fill="#D9DADA"/>
        <path d="M18.1366 32.4253C18.2393 32.5909 18.4859 32.5909 18.5886 32.4253L20.7255 28.7212C20.8282 28.5556 20.705 28.328 20.4995 28.328H16.2462C16.0408 28.328 15.9175 28.5349 16.0202 28.7212L18.1571 32.4253H18.1366Z" fill="#D9DADA"/>
        <path d="M12.7944 32.7978C12.6916 32.9634 12.8149 33.191 13.0204 33.191H17.2736C17.4791 33.191 17.6024 32.984 17.4997 32.7978L15.3628 29.0936C15.26 28.9281 15.0135 28.9281 14.9107 29.0936L12.7738 32.7978H12.7944Z" fill="#D9DADA"/>
        <path d="M14.9107 38.0334C15.0135 38.1989 15.26 38.1989 15.3628 38.0334L17.4997 34.3292C17.6024 34.1637 17.4791 33.936 17.2736 33.936H13.0204C12.8149 33.936 12.6916 34.143 12.7944 34.3292L14.9313 38.0334H14.9107Z" fill="#D9DADA"/>
    </g>
    <rect x="0.5" y="0.5" width="160" height="47" rx="5.5" stroke="white"/>
    <defs>
        <clipPath id="clip0_1_131">
            <rect width="161" height="48" rx="6" fill="white"/>
        </clipPath>
    </defs>
</svg>
