<svg width="161" height="48" viewBox="0 0 161 48" fill="none" xmlns="http://www.w3.org/2000/svg">
    <g clip-path="url(#clip0_1_130)">
        <path d="M155.037 -0.192017H5.96296C2.66971 -0.192017 0 2.49427 0 5.80798V41.808C0 45.1217 2.66971 47.808 5.96296 47.808H155.037C158.33 47.808 161 45.1217 161 41.808V5.80798C161 2.49427 158.33 -0.192017 155.037 -0.192017Z" fill="black"/>
        <path d="M155.037 0.767984C156.365 0.767984 157.64 1.29898 158.579 2.24416C159.518 3.18935 160.046 4.47129 160.046 5.80798V41.808C160.046 43.1447 159.518 44.4266 158.579 45.3718C157.64 46.317 156.365 46.848 155.037 46.848H5.96296C4.63452 46.848 3.36049 46.317 2.42114 45.3718C1.48179 44.4266 0.954074 43.1447 0.954074 41.808V5.80798C0.954074 4.47129 1.48179 3.18935 2.42114 2.24416C3.36049 1.29898 4.63452 0.767984 5.96296 0.767984H155.037ZM155.037 -0.192017H5.96296C4.38149 -0.192017 2.86478 0.440124 1.74651 1.56534C0.628239 2.69056 0 4.21668 0 5.80798V41.808C0 43.3993 0.628239 44.9254 1.74651 46.0506C2.86478 47.1758 4.38149 47.808 5.96296 47.808H155.037C156.619 47.808 158.135 47.1758 159.254 46.0506C160.372 44.9254 161 43.3993 161 41.808V5.80798C161 4.21668 160.372 2.69056 159.254 1.56534C158.135 0.440124 156.619 -0.192017 155.037 -0.192017Z" fill="white"/>
        <g clip-path="url(#clip1_1_130)">
            <path fill-rule="evenodd" clip-rule="evenodd" d="M30.7473 40.656C23.2353 40.656 19.4793 40.656 17.1457 38.3279C14.812 35.9997 14.812 32.2526 14.812 24.7583L14.812 23.4335C14.812 15.9393 14.812 12.1922 17.1457 9.86403C19.4793 7.53601 23.2353 7.53601 30.7473 7.53601L32.0752 7.53601C39.5872 7.53601 43.3432 7.53601 45.6768 9.86402C48.0105 12.1922 48.0105 15.9393 48.0105 23.4335V24.7583C48.0105 32.2526 48.0105 35.9997 45.6768 38.3279C43.3432 40.656 39.5872 40.656 32.0752 40.656H30.7473Z" fill="black"/>
            <path d="M34.0094 27.9466C33.115 27.7237 32.4878 26.9254 32.4878 26.0099V15.2241C32.4878 14.1843 33.4727 13.4217 34.4887 13.6748L40.9224 15.2782C41.8169 15.5011 42.4441 16.2993 42.4441 17.2148V28.0006C42.4441 29.0405 41.4591 29.8031 40.4432 29.55L34.0094 27.9466Z" fill="white"/>
            <path d="M21.9004 32.913C21.0059 32.6901 20.3788 31.8919 20.3788 30.9764V20.1906C20.3788 19.1507 21.3637 18.3881 22.3796 18.6413L28.8134 20.2447C29.7078 20.4675 30.335 21.2658 30.335 22.1813V32.9671C30.335 34.0069 29.3501 34.7696 28.3341 34.5164L21.9004 32.913Z" fill="white"/>
            <path d="M27.9549 30.4299C27.0604 30.2069 26.4332 29.4087 26.4332 28.4932V17.7075C26.4332 16.6676 27.4182 15.9049 28.4341 16.1581L34.8678 17.7615C35.7623 17.9844 36.3895 18.7826 36.3895 19.6982V30.4839C36.3895 31.5238 35.4046 32.2864 34.3886 32.0332L27.9549 30.4299Z" fill="white"/>
            <path d="M32.1658 31.4821C31.884 31.4106 31.6835 31.162 31.6737 30.8721L31.3938 22.6351C31.3128 21.5449 30.5017 20.6779 29.654 20.4226C29.6064 20.4082 29.5556 20.4275 29.5274 20.4684C29.4988 20.5099 29.5098 20.5673 29.5498 20.5982C29.7591 20.7599 30.3352 21.2874 30.3352 22.1973L30.3335 31.0189L32.1658 31.4821Z" fill="black"/>
            <path d="M38.2217 28.9965C37.9402 28.9263 37.7394 28.6785 37.7296 28.3891L37.4497 20.1527C37.3687 19.0625 36.5576 18.1955 35.7099 17.9401C35.6623 17.9258 35.6115 17.9451 35.5833 17.9859C35.5546 18.0274 35.5657 18.0849 35.6057 18.1158C35.815 18.2774 36.3911 18.805 36.3911 19.7149L36.3894 28.5395L38.2217 28.9965Z" fill="black"/>
            <path d="M67.1219 32.4742C69.6359 31.8347 71.2879 29.9164 71.2879 27.4061C71.2879 24.3036 68.7977 22.1249 65.302 22.1249H59.0769V38.8211H61.9501V32.6873H63.9854L68.4385 38.8211H71.8146L67.1219 32.4742ZM65.302 24.73C67.0977 24.73 68.3431 25.8193 68.3431 27.4061C68.3431 28.9928 67.0977 30.0822 65.302 30.0822H61.9501V24.73H65.302Z" fill="white"/>
            <path d="M78.2811 39.0579C79.7894 39.0579 81.178 38.2763 81.9684 36.9738L82.5188 38.8211H84.5782V26.5061H81.8247V33.6346C81.8247 35.3871 80.6514 36.6186 79.0473 36.6186C77.467 36.6186 76.3654 35.3871 76.3654 33.6346V26.5061H73.6122V33.9424C73.6122 36.9028 75.6233 39.0579 78.2811 39.0579Z" fill="white"/>
            <path d="M93.3655 39.0579C96.5499 39.0579 99.1839 37.258 99.1839 34.274C99.1839 30.9348 96.4303 29.9638 94.06 29.1586C92.2163 28.5429 90.6123 27.9745 90.6123 26.4825C90.6123 25.1799 91.8331 24.4931 93.2696 24.4931C94.7783 24.4931 95.8557 25.2747 96.4544 26.6009L99.1839 26.1509C98.3218 23.5458 96.1428 21.8881 93.1742 21.8881C90.1094 21.8881 87.667 23.6406 87.667 26.6246C87.667 29.9875 90.4206 30.9111 92.7909 31.6926C94.6108 32.2847 96.2386 32.8531 96.2386 34.3688C96.2386 35.695 95.0178 36.4528 93.3896 36.4528C91.5218 36.4528 90.5164 35.5766 89.6306 33.9898L86.8529 34.4635C87.667 37.2817 90.2531 39.0579 93.3655 39.0579Z" fill="white"/>
            <path d="M106.674 36.4528C105.74 36.4528 105.285 36.0028 105.285 35.0792V28.8744H108.997V26.5061H105.285V22.9537H103.226L102.532 26.5061H100.497V28.8744H102.532V35.0792C102.532 37.4948 103.945 38.8211 106.674 38.8211H108.997L109.236 36.4528H106.674Z" fill="white"/>
            <path d="M117.105 39.0579C121.007 39.0579 123.76 36.4054 123.76 32.6636C123.76 28.9217 121.007 26.2693 117.105 26.2693C113.202 26.2693 110.448 28.9217 110.448 32.6636C110.448 36.4054 113.202 39.0579 117.105 39.0579ZM117.105 36.5712C114.854 36.5712 113.321 34.9845 113.321 32.6636C113.321 30.3427 114.854 28.756 117.105 28.756C119.355 28.756 120.887 30.3427 120.887 32.6636C120.887 34.9845 119.355 36.5712 117.105 36.5712Z" fill="white"/>
            <path d="M128.908 38.8211V31.5505C128.908 29.9875 129.674 29.1112 131.35 29.1112H132.931L132.691 26.5061H132.164C130.704 26.5061 129.578 26.9087 128.74 28.2823L128.214 26.5061H126.155V38.8211H128.908Z" fill="white"/>
            <path d="M146.479 32.5215C146.479 28.9691 143.797 26.2693 140.014 26.2693C136.231 26.2693 133.549 28.9454 133.549 32.6636C133.549 36.3817 136.231 39.0579 140.014 39.0579C142.6 39.0579 145.042 37.8501 145.976 35.5055L143.39 35.0792C142.792 35.9555 141.642 36.5712 140.182 36.5712C138.075 36.5712 136.686 35.2923 136.423 33.3977H146.431C146.455 33.1372 146.479 32.853 146.479 32.5215ZM140.014 28.6376C141.738 28.6376 143.031 29.7269 143.486 31.2663H136.59C137.045 29.6796 138.338 28.6376 140.014 28.6376Z" fill="white"/>
            <path d="M59.3094 17.9401V15.529H59.4674C59.6723 15.529 59.8361 15.479 59.959 15.3789C60.0819 15.2788 60.1843 15.0786 60.2662 14.7783C60.354 14.4721 60.4213 14.0217 60.4681 13.427L60.7226 10.1415H64.6198V15.529H65.5239V17.9401H64.6198V16.368H60.2135V17.9401H59.3094ZM63.7157 15.529V10.9805H61.5565L61.3722 13.4711C61.3019 14.4662 61.1205 15.1522 60.828 15.529H63.7157Z" fill="white"/>
            <path d="M68.3978 16.4564C67.9356 16.4564 67.523 16.3563 67.1602 16.1561C66.7974 15.9559 66.5136 15.6762 66.3088 15.317C66.104 14.9579 66.0016 14.5486 66.0016 14.0894C66.0016 13.6301 66.104 13.2209 66.3088 12.8617C66.5136 12.5026 66.7974 12.2229 67.1602 12.0227C67.523 11.8166 67.9356 11.7136 68.3978 11.7136C68.8601 11.7136 69.2727 11.8166 69.6355 12.0227C69.9983 12.2229 70.2821 12.5026 70.4869 12.8617C70.6917 13.2209 70.7941 13.6301 70.7941 14.0894C70.7941 14.5486 70.6917 14.9579 70.4869 15.317C70.2821 15.6762 69.9983 15.9559 69.6355 16.1561C69.2727 16.3563 68.8601 16.4564 68.3978 16.4564ZM68.3978 15.6615C68.8426 15.6615 69.2024 15.5172 69.4775 15.2287C69.7584 14.9402 69.8988 14.5604 69.8988 14.0894C69.8988 13.6183 69.7584 13.2386 69.4775 12.9501C69.2024 12.6557 68.8426 12.5085 68.3978 12.5085C67.9531 12.5085 67.5932 12.6557 67.3182 12.9501C67.0432 13.2386 66.9057 13.6183 66.9057 14.0894C66.9057 14.5545 67.0432 14.9343 67.3182 15.2287C67.5932 15.5172 67.9531 15.6615 68.3978 15.6615Z" fill="white"/>
            <path d="M73.8056 16.4564C73.355 16.4564 72.9483 16.3563 72.5855 16.1561C72.2286 15.95 71.9506 15.6674 71.7517 15.3082C71.5527 14.949 71.4532 14.5428 71.4532 14.0894C71.4532 13.6301 71.5527 13.2209 71.7517 12.8617C71.9506 12.5026 72.2286 12.2229 72.5855 12.0227C72.9425 11.8166 73.3492 11.7136 73.8056 11.7136C74.2913 11.7136 74.7243 11.8313 75.1047 12.0669C75.4909 12.3024 75.7659 12.6409 75.9297 13.0825L75.1222 13.215C75.0169 13.003 74.8501 12.8323 74.6219 12.7028C74.3995 12.5732 74.145 12.5085 73.8583 12.5085C73.4135 12.5085 73.0507 12.6557 72.7699 12.9501C72.4948 13.2445 72.3573 13.6242 72.3573 14.0894C72.3573 14.5545 72.4948 14.9343 72.7699 15.2287C73.0507 15.5172 73.4135 15.6615 73.8583 15.6615C74.1567 15.6615 74.42 15.5938 74.6482 15.4583C74.8823 15.3229 75.052 15.1433 75.1573 14.9196L75.9649 15.0521C75.801 15.4996 75.5201 15.847 75.1222 16.0942C74.7302 16.3357 74.2913 16.4564 73.8056 16.4564Z" fill="white"/>
            <path d="M78.6207 16.368H77.7605V12.5968H76.1893V11.8019H80.1918V12.5968H78.6207V16.368Z" fill="white"/>
            <path d="M84.2556 11.8019H85.1421L83.2462 17.0569C83.1058 17.4514 82.9214 17.737 82.6932 17.9136C82.465 18.0903 82.1607 18.1786 81.7803 18.1786H81.1045L81.0255 17.3837H81.833C82.0027 17.3837 82.1344 17.3454 82.228 17.2689C82.3216 17.1982 82.4006 17.0717 82.465 16.8891L82.5615 16.6242L80.5427 11.8019H81.4644L82.9039 15.3259H83.0268L84.2556 11.8019Z" fill="white"/>
            <path d="M86.7802 16.368H85.92V11.8019H89.7821V16.368H88.9219V12.5968H86.7802V16.368Z" fill="white"/>
            <path d="M94.0145 13.6654V11.8019H94.8747V16.368H94.0145V14.4603H91.8289V16.368H90.9687V11.8019H91.8289V13.6654H94.0145Z" fill="white"/>
            <path d="M98.1933 16.4564C97.731 16.4564 97.3185 16.3563 96.9557 16.1561C96.5929 15.9559 96.3091 15.6762 96.1042 15.317C95.8994 14.9579 95.797 14.5486 95.797 14.0894C95.797 13.6301 95.8994 13.2209 96.1042 12.8617C96.3091 12.5026 96.5929 12.2229 96.9557 12.0227C97.3185 11.8166 97.731 11.7136 98.1933 11.7136C98.6556 11.7136 99.0681 11.8166 99.4309 12.0227C99.7937 12.2229 100.078 12.5026 100.282 12.8617C100.487 13.2209 100.59 13.6301 100.59 14.0894C100.59 14.5486 100.487 14.9579 100.282 15.317C100.078 15.6762 99.7937 15.9559 99.4309 16.1561C99.0681 16.3563 98.6556 16.4564 98.1933 16.4564ZM98.1933 15.6615C98.638 15.6615 98.9979 15.5172 99.2729 15.2287C99.5538 14.9402 99.6942 14.5604 99.6942 14.0894C99.6942 13.6183 99.5538 13.2386 99.2729 12.9501C98.9979 12.6557 98.638 12.5085 98.1933 12.5085C97.7486 12.5085 97.3887 12.6557 97.1137 12.9501C96.8386 13.2386 96.7011 13.6183 96.7011 14.0894C96.7011 14.5545 96.8386 14.9343 97.1137 15.2287C97.3887 15.5172 97.7486 15.6615 98.1933 15.6615Z" fill="white"/>
            <path d="M106.631 13.9746C106.865 14.0629 107.053 14.2071 107.193 14.4073C107.339 14.6016 107.413 14.8313 107.413 15.0962C107.413 15.3376 107.342 15.5555 107.202 15.7498C107.067 15.9441 106.877 16.0972 106.631 16.2091C106.386 16.315 106.105 16.368 105.789 16.368H103.621V11.8019H105.71C106.008 11.8019 106.274 11.8549 106.508 11.9609C106.743 12.0669 106.924 12.2111 107.053 12.3936C107.187 12.5762 107.255 12.7852 107.255 13.0207C107.255 13.2445 107.199 13.4388 107.088 13.6036C106.982 13.7626 106.83 13.8862 106.631 13.9746ZM104.481 12.535V13.6566H105.71C105.909 13.6566 106.072 13.6066 106.201 13.5065C106.33 13.4005 106.394 13.2651 106.394 13.1002C106.394 12.9353 106.33 12.7999 106.201 12.6939C106.072 12.5879 105.909 12.535 105.71 12.535H104.481ZM105.789 15.635C106.017 15.635 106.201 15.5761 106.342 15.4583C106.482 15.3406 106.552 15.1875 106.552 14.9991C106.552 14.8107 106.482 14.6576 106.342 14.5398C106.201 14.4221 106.017 14.3632 105.789 14.3632H104.481V15.635H105.789Z" fill="white"/>
        </g>
    </g>
    <defs>
        <clipPath id="clip0_1_130">
            <rect width="161" height="48" fill="white"/>
        </clipPath>
        <clipPath id="clip1_1_130">
            <rect width="131.662" height="33.12" fill="white" transform="translate(14.812 7.53601)"/>
        </clipPath>
    </defs>
</svg>
